<?xml version="1.0" encoding="UTF-8"?>
<svg width="1024" height="1024" viewBox="0 0 1024 1024" xmlns="http://www.w3.org/2000/svg">
  <rect width="1024" height="1024" fill="#ffffff"/>
  <g transform="translate(112, 112) scale(0.78125)">
    <path d="M512 0C229.232 0 0 229.232 0 512c0 282.784 229.232 512 512 512 282.784 0 512-229.216 512-512C1024 229.232 794.784 0 512 0zM512 992C246.912 992 32 777.088 32 512 32 246.912 246.912 32 512 32c265.088 0 480 214.912 480 480C992 777.088 777.088 992 512 992z" fill="#c62828"/>
    <path d="M700.256 384.496L628 311.744V208c0-17.664-14.336-32-32-32s-32 14.336-32 32v72.24l-52.256-52.736c-25.12-25.12-65.872-25.12-91.488 0L323.744 384.496c-12.496 12.496-12.496 32.752 0 45.248 12.496 12.512 32.752 12.512 45.248 0L466 332.256V560c0 17.664 14.336 32 32 32s32-14.336 32-32V332.256l97.008 97.488c6.256 6.256 14.432 9.376 22.624 9.376s16.368-3.12 22.624-9.376C712.752 417.248 712.752 396.992 700.256 384.496z" fill="#c62828"/>
    <path d="M512 640c-17.664 0-32 14.336-32 32v128c0 17.664 14.336 32 32 32s32-14.336 32-32V672C544 654.336 529.664 640 512 640z" fill="#c62828"/>
  </g>
</svg>